<svg width="16" height="16" viewBox="0 0 1024 1024" xmlns="http://www.w3.org/2000/svg" xmlns:xlink="http://www.w3.org/1999/xlink" overflow="hidden"><defs></defs><path d="M711.782 385.707 317.861 385.707C305.897 385.707 295.822 394.831 295.822 407.087L295.822 668.245C295.822 680.5 305.896 689.497 317.861 689.497L711.782 689.497C723.747 689.497 732.729 680.501 732.729 668.245L732.729 407.087C732.729 394.829 723.745 385.707 711.782 385.707ZM344.681 482.2 455.696 460.944 464.085 502.61 354.186 523.864 344.681 482.2ZM515.818 609.156C481.702 646.348 445.911 597.412 445.911 597.412L464.087 585.668C464.087 585.668 488.415 629.57 515.541 571.406 541.547 627.892 570.35 586.227 570.35 586.505L586.85 597.134C586.848 597.131 556.088 646.346 515.818 609.156ZM680.525 523.865 570.349 502.613 579.018 460.947 689.754 482.203 680.525 523.865Z" fill="#CCCED1"/><path d="M512 115.456C292.995 115.456 115.456 292.996 115.456 511.999 115.456 731.004 292.996 908.544 512 908.544 731.004 908.544 908.544 731.004 908.544 512 908.544 292.995 731.005 115.456 512 115.456ZM720.829 742.36C693.109 741.483 683.77 742.36 683.77 742.36 683.77 742.36 681.728 774.167 654.593 774.749 627.165 775.041 623.079 752.572 622.202 744.111 605.571 744.111 405.689 744.985 405.689 744.985 405.689 744.985 402.189 774.456 375.051 774.456 347.623 774.456 346.162 749.945 344.413 744.985 326.612 744.985 302.684 744.4 302.684 744.4 302.684 744.4 242.574 731.858 234.696 653.656 235.571 575.454 234.696 420.798 234.696 420.798 234.696 420.798 229.152 348.727 300.935 328.008 323.108 327.134 370.967 326.84 426.407 326.84L375.342 277.234C375.342 277.234 367.464 267.313 380.886 256.225 394.603 245.139 395.182 249.657 399.853 252.867 404.522 256.075 476.013 326.539 476.013 326.539L466.384 326.539C493.811 326.539 522.117 326.984 549.253 326.984 559.756 316.479 619.576 257.901 623.66 254.986 628.329 252.068 629.203 247.145 642.628 258.231 656.051 269.319 648.172 279.26 648.172 279.26L598.273 327.415C666.846 328 719.66 328.293 719.66 328.293 719.66 328.293 787.355 343.179 789.107 420.793 788.232 498.413 789.398 654.526 789.398 654.526 789.398 654.526 785.609 730.393 720.829 742.36Z" fill="#CCCED1"/></svg>